<?xml version="1.0" standalone="no"?>
<!DOCTYPE svg PUBLIC "-//W3C//DTD SVG 20010904//EN"
 "http://www.w3.org/TR/2001/REC-SVG-20010904/DTD/svg10.dtd">
<svg version="1.0" xmlns="http://www.w3.org/2000/svg"
 width="1000.000000pt" height="1000.000000pt" viewBox="0 0 1000.000000 1000.000000"
 preserveAspectRatio="xMidYMid meet">
<metadata>
Created by potrace 1.11, written by Peter Selinger 2001-2013
</metadata>
<g transform="translate(0.000000,1000.000000) scale(0.100000,-0.100000)"
fill="#000000" stroke="none">
<path d="M1062 8937 l-1062 -1062 0 -3938 0 -3937 3943 0 3942 0 1058 1058
1057 1057 0 3943 0 3942 -3938 0 -3937 0 -1063 -1063z m1118 -1416 c176 -55
309 -187 364 -359 13 -43 26 -95 27 -117 l4 -40 -108 0 -109 0 -22 70 c-44
136 -98 205 -199 251 -53 24 -75 28 -152 28 -76 0 -99 -4 -147 -26 -68 -32
-142 -103 -180 -173 -15 -28 -39 -91 -54 -140 -28 -89 -28 -94 -29 -360 0
-305 6 -345 75 -490 47 -98 121 -177 199 -214 52 -24 66 -26 191 -26 127 0
139 2 195 28 33 15 75 42 93 60 l32 31 0 198 0 198 -180 0 -180 0 0 95 0 95
290 0 290 0 0 -326 0 -325 -51 -50 c-122 -119 -256 -180 -435 -198 -94 -10
-207 -1 -274 20 -245 80 -416 311 -466 631 -20 127 -14 485 10 589 72 310 242
510 480 565 84 19 251 12 336 -15z m2340 -91 l0 -100 -425 0 -425 0 0 -285 0
-285 370 0 370 0 0 -95 0 -95 -370 0 -370 0 0 -315 0 -315 430 0 430 0 0 -95
0 -95 -545 0 -545 0 0 890 0 890 540 0 540 0 0 -100z m2000 0 l0 -100 -425 0
-425 0 0 -285 0 -285 370 0 370 0 0 -95 0 -95 -370 0 -370 0 0 -315 0 -315
430 0 430 0 0 -95 0 -95 -545 0 -545 0 0 890 0 890 540 0 540 0 0 -100z m1140
-337 l0 -436 348 436 347 437 133 0 c79 0 132 -4 130 -9 -1 -6 -139 -181 -305
-390 -167 -209 -303 -382 -303 -385 0 -3 146 -225 325 -494 179 -269 325 -492
325 -496 0 -3 -60 -6 -134 -6 l-133 0 -258 398 c-142 218 -263 403 -269 410
-9 9 -33 -12 -109 -98 l-97 -110 0 -300 0 -300 -115 0 -115 0 0 890 0 890 115
0 115 0 0 -437z m-5120 -2963 l0 -100 -430 0 -430 0 0 -305 0 -305 370 0 370
0 0 -95 0 -95 -370 0 -370 0 0 -390 0 -390 -115 0 -115 0 0 883 c0 486 3 887
7 890 3 4 249 7 545 7 l538 0 0 -100z m1960 0 l0 -100 -210 0 -210 0 0 -695 0
-695 210 0 210 0 0 -95 0 -95 -535 0 -535 0 0 95 0 95 208 2 207 3 3 693 2
692 -210 0 -210 0 0 100 0 100 535 0 535 0 0 -100z m1188 -697 l2 -793 435 0
435 0 0 -95 0 -95 -550 0 -550 0 0 890 0 891 113 -3 112 -3 3 -792z m2832 697
l0 -100 -425 0 -425 0 0 -285 0 -285 370 0 370 0 0 -95 0 -95 -370 0 -370 0 0
-315 0 -315 430 0 430 0 0 -95 0 -95 -545 0 -545 0 0 890 0 890 540 0 540 0 0
-100z"/>
</g>
</svg>
