<?xml version="1.0" standalone="no"?>
<!DOCTYPE svg PUBLIC "-//W3C//DTD SVG 20010904//EN"
 "http://www.w3.org/TR/2001/REC-SVG-20010904/DTD/svg10.dtd">
<svg version="1.0" xmlns="http://www.w3.org/2000/svg"
 width="260.000000pt" height="260.000000pt" viewBox="0 0 260.000000 260.000000"
 preserveAspectRatio="xMidYMid meet">
<metadata>
Created by potrace 1.16, written by Peter Selinger 2001-2019
</metadata>
<g transform="translate(0.000000,260.000000) scale(0.100000,-0.100000)"
fill="#000000" stroke="none">
<path d="M0 1300 l0 -1300 1300 0 1300 0 0 1300 0 1300 -1300 0 -1300 0 0
-1300z m1614 1044 c3 -26 6 -82 6 -125 0 -43 5 -81 10 -84 6 -4 33 19 61 49
28 31 57 56 64 56 30 0 24 -23 -19 -81 -25 -34 -46 -65 -46 -71 0 -5 20 -36
45 -68 51 -66 55 -80 22 -80 -33 0 -63 25 -93 75 -14 25 -30 45 -34 45 -5 0
-10 -26 -12 -57 -3 -50 -6 -58 -24 -61 -12 -2 -24 4 -27 12 -5 14 -9 184 -7
369 0 64 1 67 24 67 20 0 24 -6 30 -46z m-844 22 c26 -10 36 -19 38 -39 4 -31
5 -31 -72 -16 -54 10 -62 8 -111 -16 -42 -20 -58 -35 -74 -69 -38 -77 -22
-196 31 -229 12 -8 55 -18 94 -21 86 -8 100 2 89 63 -5 31 -12 41 -28 43 -16
2 -23 11 -25 31 -3 27 -2 27 52 27 l56 0 0 -95 c0 -115 -2 -117 -131 -119 -74
-1 -91 2 -106 18 -10 10 -13 16 -6 12 21 -11 108 -16 143 -7 34 9 33 9 -20 11
-75 2 -97 7 -125 28 -31 22 -57 80 -57 126 0 20 -5 36 -11 36 -7 0 -6 4 2 9
12 8 12 12 2 25 -9 11 -10 16 -2 16 6 0 11 6 11 14 0 8 7 22 16 30 8 9 12 20
9 26 -3 5 0 10 7 10 8 0 20 9 27 19 8 11 21 17 29 13 11 -4 14 -1 9 11 -3 9
-2 17 3 17 6 0 10 -5 10 -10 0 -6 8 -5 20 2 27 17 25 28 -3 28 -48 0 -127 -53
-155 -105 -9 -16 -11 -17 -12 -3 0 23 46 75 84 95 63 33 145 41 206 19z m333
-128 c15 -7 27 -16 27 -20 0 -11 -18 -10 -25 2 -3 6 -20 10 -36 10 -18 0 -28
-4 -24 -10 3 -5 15 -10 25 -10 20 0 60 -44 60 -67 0 -7 -10 -18 -22 -23 -21
-8 -20 -9 10 -9 26 -1 32 3 32 21 0 12 3 19 6 15 4 -3 3 -18 0 -32 l-7 -26
-99 3 c-99 3 -100 3 -100 -20 0 -60 53 -88 145 -77 51 7 55 6 55 -14 0 -26
-33 -36 -117 -36 -67 0 -99 19 -129 77 -17 33 -17 110 0 158 21 61 127 91 199
58z m330 0 c15 -7 27 -16 27 -20 0 -11 -18 -10 -25 2 -3 6 -20 10 -36 10 -18
0 -28 -4 -24 -10 3 -5 15 -10 25 -10 20 0 60 -44 60 -67 0 -7 -10 -18 -22 -23
-21 -8 -20 -9 10 -9 26 -1 32 3 32 21 0 12 3 19 6 15 4 -3 3 -18 0 -32 l-7
-26 -99 3 c-99 3 -100 3 -100 -20 0 -60 53 -88 145 -77 51 7 55 6 55 -14 0
-26 -33 -36 -117 -36 -67 0 -99 19 -129 77 -17 33 -17 110 0 158 21 61 127 91
199 58z m635 -22 c3 -24 1 -28 -15 -21 -41 16 -89 17 -102 2 -24 -30 -9 -50
49 -63 78 -17 121 -76 90 -124 -6 -10 -10 -11 -10 -2 0 19 -26 14 -64 -12 -31
-21 -41 -23 -77 -15 -50 12 -74 6 -39 -9 24 -10 24 -11 3 -11 -16 -1 -24 6
-29 24 -4 14 -5 28 -2 30 2 2 27 -3 56 -11 48 -14 55 -14 77 0 14 9 25 20 25
24 0 18 -47 51 -86 61 -42 11 -80 51 -70 74 3 7 5 6 5 -3 2 -31 89 -80 148
-84 11 0 19 -4 16 -8 -2 -5 0 -8 6 -8 6 0 8 -7 5 -15 -4 -9 0 -15 9 -15 22 0
32 20 16 31 -8 5 -10 9 -6 9 4 0 -1 9 -11 20 -12 13 -41 24 -78 30 -32 6 -59
10 -59 10 0 0 0 16 0 36 1 23 8 42 20 50 17 13 17 14 1 14 -21 0 -58 -19 -68
-34 -10 -15 -10 5 0 21 14 22 56 32 122 30 64 -2 65 -3 68 -31z m257 -986 c4
-71 11 -130 16 -130 4 0 27 22 50 50 43 51 74 69 91 52 6 -6 -8 -31 -41 -73
-28 -35 -51 -65 -51 -68 0 -4 23 -35 49 -71 27 -35 47 -68 45 -72 -10 -15 -54
-8 -74 12 -10 10 -31 37 -45 60 -14 22 -30 40 -35 40 -6 0 -10 -27 -10 -60 0
-56 -1 -60 -24 -60 l-23 0 -5 183 c-6 239 -3 267 27 267 23 0 23 -3 30 -130z
m-2176 93 c0 -11 -3 -13 -6 -5 -5 14 -43 17 -43 3 0 -6 5 -13 10 -16 6 -4 8
-15 5 -26 -9 -28 23 -25 35 4 7 15 9 -34 7 -148 l-2 -170 98 -3 c87 -2 97 -5
97 -21 0 -14 -10 -21 -37 -26 -52 -10 -194 -6 -208 5 -8 7 -12 76 -12 215 l-1
205 29 0 c21 0 29 -5 28 -17z m1116 -24 c55 -15 82 -42 79 -80 -2 -26 1 -30
17 -26 21 6 24 -5 9 -34 -8 -15 -6 -25 9 -46 11 -16 23 -48 26 -73 5 -45 5
-45 -9 9 -15 58 -27 71 -66 70 -24 0 -24 0 -3 -9 29 -12 43 -40 43 -86 0 -56
-22 -74 -91 -74 -32 0 -70 -5 -84 -12 -32 -14 -36 -10 -41 44 -2 24 -1 34 2
23 11 -38 25 -45 93 -45 84 0 101 12 104 69 2 57 -18 71 -97 71 -64 0 -79 -5
-89 -30 -4 -8 -5 -2 -4 15 2 26 6 30 37 31 19 1 37 3 40 4 3 1 19 1 35 0 21
-1 40 7 58 24 31 29 33 36 12 36 -8 0 -15 -6 -15 -14 0 -8 -9 -12 -24 -11 -14
2 -42 -1 -63 -5 -23 -6 -42 -5 -47 0 -6 6 -23 10 -38 10 l-28 0 0 -119 0 -119
88 0 c64 0 98 5 127 19 l40 19 -28 -25 c-15 -14 -40 -25 -55 -26 -15 0 -62 -2
-104 -5 l-77 -3 -3 137 c-2 75 0 164 3 197 l6 60 1 -62 c2 -50 5 -63 18 -63
13 0 15 10 14 48 -5 89 -3 92 33 92 17 0 50 -5 72 -11z m-665 -84 c33 -17 66
-54 79 -88 13 -33 15 -87 3 -87 -4 0 -6 16 -4 35 3 21 0 35 -7 35 -6 0 -11 6
-11 13 -1 17 -28 52 -36 44 -3 -3 3 -18 15 -33 11 -14 18 -30 16 -34 -3 -5 -1
-11 4 -14 6 -4 6 -18 1 -37 -8 -28 -7 -31 10 -26 11 3 20 1 20 -4 0 -5 -6 -9
-14 -9 -7 0 -30 -16 -50 -35 -29 -27 -46 -35 -75 -35 -47 0 -89 19 -97 45 -7
22 -22 35 -41 35 -21 0 -15 -18 8 -25 12 -4 17 -10 11 -14 -14 -8 6 -33 38
-47 14 -5 49 -10 78 -10 65 1 68 -10 5 -20 -36 -5 -54 -3 -81 12 -130 70 -116
260 24 309 40 14 60 12 104 -10z m1119 -14 c36 -26 71 -96 71 -143 0 -61 -36
-126 -72 -132 -7 -1 -18 -5 -24 -8 -6 -4 -29 -10 -51 -14 -77 -12 -153 52
-161 136 -8 88 34 157 114 185 43 14 78 7 123 -24z m380 0 c36 -26 71 -96 71
-143 0 -61 -36 -126 -72 -132 -7 -1 -18 -5 -24 -8 -6 -4 -29 -10 -51 -14 -77
-12 -153 52 -161 136 -8 88 34 157 114 185 43 14 78 7 123 -24z m-1124 20 c19
-4 26 -9 18 -14 -6 -4 -30 -3 -52 2 -24 5 -41 5 -41 0 0 -5 9 -9 21 -9 22 0
58 -36 59 -57 0 -7 7 -13 16 -13 15 0 15 2 0 25 -15 23 -15 25 7 37 30 16 57
20 57 8 0 -6 -11 -10 -25 -10 -27 0 -31 -13 -15 -55 9 -24 8 -26 -10 -20 -16
5 -20 2 -20 -16 0 -37 -53 -79 -100 -79 -22 0 -40 -5 -40 -10 0 -16 113 -2
126 15 6 8 17 15 24 15 7 0 10 7 6 15 -3 8 -1 15 4 15 14 0 12 -23 -3 -44 -15
-20 -79 -46 -115 -46 -40 0 -14 -18 46 -31 70 -15 100 -29 130 -62 31 -33 23
-59 -30 -98 -34 -24 -50 -29 -97 -29 -63 1 -122 19 -153 46 -16 15 -19 27 -15
57 3 21 12 46 20 55 8 9 12 22 10 29 -3 7 3 9 16 6 12 -3 21 -1 21 6 0 6 -9
11 -21 11 -18 0 -20 4 -14 30 5 22 1 38 -14 59 -68 95 43 193 184 162z"/>
<path d="M1172 1234 l3 -59 57 -3 c71 -4 98 9 98 47 0 43 -31 64 -101 69 l-60
4 3 -58z"/>
<path d="M510 1162 c-22 -11 -38 -29 -46 -52 -21 -59 -17 -89 16 -122 28 -28
36 -30 78 -25 62 7 82 32 82 103 0 87 -60 132 -130 96z"/>
<path d="M1620 1170 c-37 -9 -70 -64 -70 -117 0 -55 35 -93 86 -93 75 0 111
44 101 126 -7 62 -58 99 -117 84z"/>
<path d="M2000 1170 c-37 -9 -70 -64 -70 -117 0 -55 35 -93 86 -93 75 0 111
44 101 126 -7 62 -58 99 -117 84z"/>
<path d="M860 1163 c-31 -40 -25 -104 12 -117 35 -12 87 9 99 42 13 34 -5 76
-37 91 -37 17 -50 14 -74 -16z"/>
</g>
</svg>
